<svg width="199" height="32" viewBox="0 0 199 32" fill="none" xmlns="http://www.w3.org/2000/svg">
<path d="M111.856 0.334707L102.696 14.4247L101.542 0.302186L89.0004 0.262695L82.3672 24.6633L86.6391 24.6772L91.8971 5.41274L93.5499 24.6981L100.608 24.7213L112.924 5.51263L107.701 24.7434L117.604 24.7748L124.123 0.374197L111.856 0.334707Z" fill="white"/>
<path d="M149.827 9.72237C149.834 7.63169 148.517 6.68508 145.913 6.67695C145.913 6.67695 134.708 6.6421 130.014 6.627C125.319 6.61191 124.179 9.91518 123.623 11.8502C123.069 13.7841 122.6 15.6169 122.081 17.6019C121.561 19.5881 121.214 20.6322 121.211 21.745C121.203 24.2294 122.829 24.7822 125.93 24.7927L140.665 24.8392C145.616 24.8543 146.808 21.774 147.293 20.0108C147.779 18.2477 148.437 15.9201 148.94 13.8817C149.443 11.8444 149.824 10.5947 149.827 9.72121V9.72237ZM139.523 13.5332C139.21 14.7203 138.124 18.7599 137.847 19.7077C137.569 20.6555 137.225 21.2815 136.186 21.2792L132.022 21.2664C131.244 21.2641 130.909 21.0225 130.91 20.4824C130.912 19.9435 131.526 17.9922 131.83 16.8109C132.133 15.6297 133.027 12.3775 133.235 11.5459C133.442 10.7166 133.931 10.1928 135.013 10.1963C136.091 10.1997 139.258 10.209 139.258 10.209C139.875 10.2114 140.148 10.6121 140.146 11.0453C140.146 11.2509 139.834 12.3462 139.522 13.5332H139.523Z" fill="white"/>
<path d="M172.164 6.76811C172.164 6.76811 160.65 6.72281 158.2 6.71585C155.751 6.70772 153.243 8.65321 152.532 11.2038C151.822 13.7545 148.832 24.8734 148.832 24.8734L158.341 24.9036C158.341 24.9036 160.522 16.8324 161.146 14.5722C161.77 12.3131 163.131 11.7939 165.872 11.8032C168.613 11.8113 170.786 11.8183 170.786 11.8183L172.164 6.76811Z" fill="white"/>
<path d="M194.99 6.83185C192.157 6.82256 184.825 6.79933 179.684 6.78423C174.544 6.76797 173.527 10.6601 173.168 11.9494C172.81 13.2386 172.533 14.2085 171.816 16.9937C171.099 19.779 170.73 20.7825 170.727 21.9022C170.721 23.9348 171.837 24.9383 174.989 24.9488C178.141 24.9592 194.738 25.0115 194.738 25.0115L195.691 21.4678C195.691 21.4678 183.874 21.4306 182.345 21.426C180.814 21.4213 180.565 20.8208 180.567 20.2041C180.567 19.9997 180.798 19.0542 181.11 17.8579L197.073 17.9078C197.073 17.9078 197.992 14.4663 198.357 13.0969C198.72 11.7275 198.997 11.026 199 9.95161C199.007 7.89577 197.823 6.84114 194.99 6.83185ZM188.731 14.3513L182.061 14.3304C182.446 12.9285 182.773 11.7484 182.845 11.4546C183.042 10.6555 183.751 10.3384 184.619 10.3407C185.487 10.343 186.972 10.3477 188.229 10.3523C189.486 10.3558 189.553 10.7333 189.552 11.1561C189.551 11.5789 188.731 14.3513 188.731 14.3513Z" fill="white"/>
<path d="M78.7153 27.1167C79.6387 23.99 84.3368 6.48284 84.3368 6.48284L74.8615 6.45264C74.8615 6.45264 71.8115 17.4938 71.5339 18.6413C71.2563 19.7889 70.995 21.0723 69.607 21.0677C68.2191 21.063 67.1737 21.0595 66.2492 21.0572C65.3235 21.0549 64.5871 21.0003 65.1075 19.2372C65.6266 17.474 68.557 6.43173 68.557 6.43173L59.0992 6.40153C59.0992 6.40153 56.8761 14.561 55.8563 18.3928C55.3244 20.3905 54.6902 24.573 60.9029 24.5928C63.5755 24.6009 69.9496 24.6207 69.9496 24.6207C69.9496 24.6207 69.8103 25.191 69.4409 26.4465C69.0716 27.7021 68.4769 27.9623 67.003 27.9576C65.5291 27.953 53.6681 27.9158 53.6681 27.9158L52.6797 31.4874C52.6797 31.4874 70.5896 31.5443 72.6919 31.5501C74.7942 31.5571 77.7908 30.2411 78.7141 27.1144L78.7153 27.1167Z" fill="#45B549"/>
<path d="M44.89 9.92434C45.5868 9.92667 46.0201 10.3274 45.811 11.195C45.6031 12.0626 45.545 12.245 45.545 12.245C45.545 12.245 38.812 12.2241 34.8025 12.2113C30.7931 12.1985 29.1589 14.4205 28.4888 16.8178C27.8186 19.2139 27.4957 20.2872 27.4922 21.509C27.4887 22.7309 27.7222 24.4848 31.835 24.4987L47.4719 24.5475C49.8936 24.5556 52.2525 22.444 52.831 20.3661C53.4082 18.2894 55.3014 12.1045 55.3072 10.1392C55.313 8.17514 54.2224 6.38877 50.7043 6.37832C47.1862 6.3667 31.7212 6.30166 31.7212 6.30166L30.7583 9.87905C30.7583 9.87905 44.1942 9.92086 44.8911 9.92318L44.89 9.92434ZM40.0745 15.7794C41.6622 15.7841 44.5578 15.7934 44.5578 15.7934C44.5578 15.7934 43.8237 18.5438 43.6158 19.2976C43.4079 20.0514 43.0513 20.998 41.5321 20.9933L38.5739 20.984C37.9223 20.9817 37.1812 20.8307 37.1836 20.0549C37.1836 19.7459 37.4495 18.8794 37.762 17.6692C38.0744 16.4589 38.4879 15.7748 40.0756 15.7806L40.0745 15.7794Z" fill="#45B549"/>
<path d="M12.1397 15.9542C12.1397 15.9542 18.6161 15.9751 22.9333 15.9879C27.2505 16.0018 29.3481 13.7636 30.2309 11.1282C30.3691 10.7136 30.5096 10.2815 30.6467 9.84479L20.4861 9.81226C19.8136 11.3013 18.5441 11.8623 17.601 11.8588C16.659 11.8553 12.8726 11.8437 12.8726 11.8437L13.2536 10.4232L9.80168 10.4128C9.47415 10.4128 8.90851 10.4104 8.91083 9.83665C8.91316 9.26172 9.51712 8.9214 10.077 8.92256C10.6368 8.92489 13.6543 8.93418 13.6543 8.93418L14.1607 7.0514L10.5508 7.03979C10.3104 7.03979 9.83188 6.99217 9.83304 6.46601C9.8342 5.94102 10.3847 5.56354 10.8528 5.5647C11.3209 5.56586 14.5579 5.57631 14.5579 5.57631L14.9528 4.10587C14.9528 4.10587 17.6602 4.114 19.4756 4.1198C21.2922 4.12561 21.4942 5.2569 21.4908 6.2674L31.6246 6.29876C31.8732 5.21393 32.0346 4.25918 32.037 3.60991C32.0416 2.05119 31.2088 0.0778206 27.6443 0.0662058C24.0809 0.0545909 6.65641 0 6.65641 0L0 24.3948L9.86905 24.4261L12.1397 15.9519V15.9542Z" fill="#45B549"/>
</svg>
